<?xml version="1.0" standalone="no"?>
<!DOCTYPE svg PUBLIC "-//W3C//DTD SVG 1.1//EN" "http://www.w3.org/Graphics/SVG/1.1/DTD/svg11.dtd">
<svg t="1718324844198" class="icon" viewBox="0 0 1024 1024" version="1.1" xmlns="http://www.w3.org/2000/svg" p-id="4662"
  xmlns:xlink="http://www.w3.org/1999/xlink" width="200" height="200">
  <path d="M260.8 960.7c33 0 60-27 60-60s-27-60-60-60-60 27-60 60c0 33.1 26.9 60 60 60z" fill="#5100A1" p-id="4663">
  </path>
  <path d="M260.8 892m-60 0a60 60 0 1 0 120 0 60 60 0 1 0-120 0Z" fill="#5102A2" p-id="4664"></path>
  <path d="M260.8 883.2m-60 0a60 60 0 1 0 120 0 60 60 0 1 0-120 0Z" fill="#5105A3" p-id="4665"></path>
  <path d="M260.8 874.4m-60 0a60 60 0 1 0 120 0 60 60 0 1 0-120 0Z" fill="#5107A4" p-id="4666"></path>
  <path d="M260.8 865.7m-60 0a60 60 0 1 0 120 0 60 60 0 1 0-120 0Z" fill="#510AA5" p-id="4667"></path>
  <path d="M260.8 856.9m-60 0a60 60 0 1 0 120 0 60 60 0 1 0-120 0Z" fill="#510CA6" p-id="4668"></path>
  <path d="M260.8 848.2m-60 0a60 60 0 1 0 120 0 60 60 0 1 0-120 0Z" fill="#510FA7" p-id="4669"></path>
  <path d="M260.8 839.4m-60 0a60 60 0 1 0 120 0 60 60 0 1 0-120 0Z" fill="#5211A8" p-id="4670"></path>
  <path d="M260.8 830.7m-60 0a60 60 0 1 0 120 0 60 60 0 1 0-120 0Z" fill="#5214A8" p-id="4671"></path>
  <path d="M260.8 821.9m-60 0a60 60 0 1 0 120 0 60 60 0 1 0-120 0Z" fill="#5216A9" p-id="4672"></path>
  <path d="M260.8 813.2m-60 0a60 60 0 1 0 120 0 60 60 0 1 0-120 0Z" fill="#5219AA" p-id="4673"></path>
  <path d="M260.8 804.4m-60 0a60 60 0 1 0 120 0 60 60 0 1 0-120 0Z" fill="#521BAB" p-id="4674"></path>
  <path d="M260.8 795.6m-60 0a60 60 0 1 0 120 0 60 60 0 1 0-120 0Z" fill="#521EAC" p-id="4675"></path>
  <path d="M260.8 786.9m-60 0a60 60 0 1 0 120 0 60 60 0 1 0-120 0Z" fill="#5220AD" p-id="4676"></path>
  <path d="M260.8 778.1m-60 0a60 60 0 1 0 120 0 60 60 0 1 0-120 0Z" fill="#5223AE" p-id="4677"></path>
  <path d="M260.8 769.4m-60 0a60 60 0 1 0 120 0 60 60 0 1 0-120 0Z" fill="#5225AF" p-id="4678"></path>
  <path d="M260.8 760.6m-60 0a60 60 0 1 0 120 0 60 60 0 1 0-120 0Z" fill="#5228B0" p-id="4679"></path>
  <path d="M260.8 751.9m-60 0a60 60 0 1 0 120 0 60 60 0 1 0-120 0Z" fill="#522AB1" p-id="4680"></path>
  <path d="M260.8 743.1m-60 0a60 60 0 1 0 120 0 60 60 0 1 0-120 0Z" fill="#522DB2" p-id="4681"></path>
  <path d="M260.8 734.4m-60 0a60 60 0 1 0 120 0 60 60 0 1 0-120 0Z" fill="#532FB3" p-id="4682"></path>
  <path d="M260.8 725.6m-60 0a60 60 0 1 0 120 0 60 60 0 1 0-120 0Z" fill="#5332B4" p-id="4683"></path>
  <path d="M260.8 716.9m-60 0a60 60 0 1 0 120 0 60 60 0 1 0-120 0Z" fill="#5334B5" p-id="4684"></path>
  <path d="M260.8 708.1m-60 0a60 60 0 1 0 120 0 60 60 0 1 0-120 0Z" fill="#5337B5" p-id="4685"></path>
  <path d="M260.8 699.3m-60 0a60 60 0 1 0 120 0 60 60 0 1 0-120 0Z" fill="#5339B6" p-id="4686"></path>
  <path d="M260.8 690.6m-60 0a60 60 0 1 0 120 0 60 60 0 1 0-120 0Z" fill="#533CB7" p-id="4687"></path>
  <path d="M260.8 681.8m-60 0a60 60 0 1 0 120 0 60 60 0 1 0-120 0Z" fill="#533EB8" p-id="4688"></path>
  <path d="M260.8 673.1m-60 0a60 60 0 1 0 120 0 60 60 0 1 0-120 0Z" fill="#5341B9" p-id="4689"></path>
  <path d="M260.8 664.3m-60 0a60 60 0 1 0 120 0 60 60 0 1 0-120 0Z" fill="#5343BA" p-id="4690"></path>
  <path d="M260.8 655.6m-60 0a60 60 0 1 0 120 0 60 60 0 1 0-120 0Z" fill="#5346BB" p-id="4691"></path>
  <path d="M260.8 646.8m-60 0a60 60 0 1 0 120 0 60 60 0 1 0-120 0Z" fill="#5348BC" p-id="4692"></path>
  <path d="M260.8 638.1m-60 0a60 60 0 1 0 120 0 60 60 0 1 0-120 0Z" fill="#534BBD" p-id="4693"></path>
  <path d="M260.8 629.3m-60 0a60 60 0 1 0 120 0 60 60 0 1 0-120 0Z" fill="#534DBE" p-id="4694"></path>
  <path d="M260.8 620.6m-60 0a60 60 0 1 0 120 0 60 60 0 1 0-120 0Z" fill="#5450BF" p-id="4695"></path>
  <path d="M260.8 611.8m-60 0a60 60 0 1 0 120 0 60 60 0 1 0-120 0Z" fill="#5452C0" p-id="4696"></path>
  <path d="M260.8 603m-60 0a60 60 0 1 0 120 0 60 60 0 1 0-120 0Z" fill="#5455C1" p-id="4697"></path>
  <path d="M260.8 594.3m-60 0a60 60 0 1 0 120 0 60 60 0 1 0-120 0Z" fill="#5457C2" p-id="4698"></path>
  <path d="M260.8 585.5m-60 0a60 60 0 1 0 120 0 60 60 0 1 0-120 0Z" fill="#545AC3" p-id="4699"></path>
  <path d="M260.8 576.8m-60 0a60 60 0 1 0 120 0 60 60 0 1 0-120 0Z" fill="#545CC3" p-id="4700"></path>
  <path d="M260.8 568m-60 0a60 60 0 1 0 120 0 60 60 0 1 0-120 0Z" fill="#545FC4" p-id="4701"></path>
  <path d="M260.8 559.3m-60 0a60 60 0 1 0 120 0 60 60 0 1 0-120 0Z" fill="#5461C5" p-id="4702"></path>
  <path d="M260.8 550.5m-60 0a60 60 0 1 0 120 0 60 60 0 1 0-120 0Z" fill="#5464C6" p-id="4703"></path>
  <path d="M260.8 541.8m-60 0a60 60 0 1 0 120 0 60 60 0 1 0-120 0Z" fill="#5466C7" p-id="4704"></path>
  <path d="M260.8 533m-60 0a60 60 0 1 0 120 0 60 60 0 1 0-120 0Z" fill="#5469C8" p-id="4705"></path>
  <path d="M260.8 524.3m-60 0a60 60 0 1 0 120 0 60 60 0 1 0-120 0Z" fill="#546BC9" p-id="4706"></path>
  <path d="M260.8 515.5m-60 0a60 60 0 1 0 120 0 60 60 0 1 0-120 0Z" fill="#546ECA" p-id="4707"></path>
  <path d="M260.8 506.7m-60 0a60 60 0 1 0 120 0 60 60 0 1 0-120 0Z" fill="#5570CB" p-id="4708"></path>
  <path d="M260.8 498m-60 0a60 60 0 1 0 120 0 60 60 0 1 0-120 0Z" fill="#5573CC" p-id="4709"></path>
  <path d="M260.8 489.2m-60 0a60 60 0 1 0 120 0 60 60 0 1 0-120 0Z" fill="#5575CD" p-id="4710"></path>
  <path d="M260.8 480.5m-60 0a60 60 0 1 0 120 0 60 60 0 1 0-120 0Z" fill="#5578CE" p-id="4711"></path>
  <path d="M260.8 471.7m-60 0a60 60 0 1 0 120 0 60 60 0 1 0-120 0Z" fill="#557ACF" p-id="4712"></path>
  <path d="M260.8 463m-60 0a60 60 0 1 0 120 0 60 60 0 1 0-120 0Z" fill="#557DD0" p-id="4713"></path>
  <path d="M260.8 454.2m-60 0a60 60 0 1 0 120 0 60 60 0 1 0-120 0Z" fill="#557FD0" p-id="4714"></path>
  <path d="M260.8 445.5m-60 0a60 60 0 1 0 120 0 60 60 0 1 0-120 0Z" fill="#5582D1" p-id="4715"></path>
  <path d="M260.8 436.7m-60 0a60 60 0 1 0 120 0 60 60 0 1 0-120 0Z" fill="#5584D2" p-id="4716"></path>
  <path d="M260.8 428m-60 0a60 60 0 1 0 120 0 60 60 0 1 0-120 0Z" fill="#5587D3" p-id="4717"></path>
  <path d="M260.8 419.2m-60 0a60 60 0 1 0 120 0 60 60 0 1 0-120 0Z" fill="#5589D4" p-id="4718"></path>
  <path d="M260.8 410.4m-60 0a60 60 0 1 0 120 0 60 60 0 1 0-120 0Z" fill="#558CD5" p-id="4719"></path>
  <path d="M260.8 401.7m-60 0a60 60 0 1 0 120 0 60 60 0 1 0-120 0Z" fill="#568ED6" p-id="4720"></path>
  <path d="M260.8 392.9m-60 0a60 60 0 1 0 120 0 60 60 0 1 0-120 0Z" fill="#5691D7" p-id="4721"></path>
  <path d="M260.8 384.2m-60 0a60 60 0 1 0 120 0 60 60 0 1 0-120 0Z" fill="#5693D8" p-id="4722"></path>
  <path d="M260.8 375.4m-60 0a60 60 0 1 0 120 0 60 60 0 1 0-120 0Z" fill="#5696D9" p-id="4723"></path>
  <path d="M260.8 366.7m-60 0a60 60 0 1 0 120 0 60 60 0 1 0-120 0Z" fill="#5698DA" p-id="4724"></path>
  <path d="M260.8 357.9m-60 0a60 60 0 1 0 120 0 60 60 0 1 0-120 0Z" fill="#569BDB" p-id="4725"></path>
  <path d="M260.8 349.2m-60 0a60 60 0 1 0 120 0 60 60 0 1 0-120 0Z" fill="#569DDC" p-id="4726"></path>
  <path d="M260.8 340.4m-60 0a60 60 0 1 0 120 0 60 60 0 1 0-120 0Z" fill="#56A0DD" p-id="4727"></path>
  <path d="M260.8 331.7m-60 0a60 60 0 1 0 120 0 60 60 0 1 0-120 0Z" fill="#56A2DD" p-id="4728"></path>
  <path d="M260.8 322.9m-60 0a60 60 0 1 0 120 0 60 60 0 1 0-120 0Z" fill="#56A5DE" p-id="4729"></path>
  <path d="M260.8 314.1m-60 0a60 60 0 1 0 120 0 60 60 0 1 0-120 0Z" fill="#56A7DF" p-id="4730"></path>
  <path d="M260.8 305.4m-60 0a60 60 0 1 0 120 0 60 60 0 1 0-120 0Z" fill="#56AAE0" p-id="4731"></path>
  <path d="M260.8 296.6m-60 0a60 60 0 1 0 120 0 60 60 0 1 0-120 0Z" fill="#56ACE1" p-id="4732"></path>
  <path d="M260.8 287.9m-60 0a60 60 0 1 0 120 0 60 60 0 1 0-120 0Z" fill="#57AFE2" p-id="4733"></path>
  <path d="M260.8 279.1m-60 0a60 60 0 1 0 120 0 60 60 0 1 0-120 0Z" fill="#57B1E3" p-id="4734"></path>
  <path d="M260.8 270.4m-60 0a60 60 0 1 0 120 0 60 60 0 1 0-120 0Z" fill="#57B4E4" p-id="4735"></path>
  <path d="M260.8 261.6m-60 0a60 60 0 1 0 120 0 60 60 0 1 0-120 0Z" fill="#57B6E5" p-id="4736"></path>
  <path d="M260.8 252.9m-60 0a60 60 0 1 0 120 0 60 60 0 1 0-120 0Z" fill="#57B9E6" p-id="4737"></path>
  <path d="M260.8 244.1m-60 0a60 60 0 1 0 120 0 60 60 0 1 0-120 0Z" fill="#57BBE7" p-id="4738"></path>
  <path d="M260.8 235.4m-60 0a60 60 0 1 0 120 0 60 60 0 1 0-120 0Z" fill="#57BEE8" p-id="4739"></path>
  <path d="M260.8 226.6m-60 0a60 60 0 1 0 120 0 60 60 0 1 0-120 0Z" fill="#57C0E9" p-id="4740"></path>
  <path d="M260.8 217.8m-60 0a60 60 0 1 0 120 0 60 60 0 1 0-120 0Z" fill="#57C3EA" p-id="4741"></path>
  <path d="M260.8 209.1m-60 0a60 60 0 1 0 120 0 60 60 0 1 0-120 0Z" fill="#57C5EB" p-id="4742"></path>
  <path d="M260.8 200.3m-60 0a60 60 0 1 0 120 0 60 60 0 1 0-120 0Z" fill="#57C8EB" p-id="4743"></path>
  <path d="M260.8 191.6m-60 0a60 60 0 1 0 120 0 60 60 0 1 0-120 0Z" fill="#57CAEC" p-id="4744"></path>
  <path d="M260.8 182.8m-60 0a60 60 0 1 0 120 0 60 60 0 1 0-120 0Z" fill="#57CDED" p-id="4745"></path>
  <path d="M260.8 174.1m-60 0a60 60 0 1 0 120 0 60 60 0 1 0-120 0Z" fill="#58CFEE" p-id="4746"></path>
  <path d="M260.8 165.3m-60 0a60 60 0 1 0 120 0 60 60 0 1 0-120 0Z" fill="#58D2EF" p-id="4747"></path>
  <path d="M260.8 156.6m-60 0a60 60 0 1 0 120 0 60 60 0 1 0-120 0Z" fill="#58D4F0" p-id="4748"></path>
  <path d="M260.8 147.8m-60 0a60 60 0 1 0 120 0 60 60 0 1 0-120 0Z" fill="#58D7F1" p-id="4749"></path>
  <path d="M260.8 139.1m-60 0a60 60 0 1 0 120 0 60 60 0 1 0-120 0Z" fill="#58D9F2" p-id="4750"></path>
  <path d="M260.8 130.3m-60 0a60 60 0 1 0 120 0 60 60 0 1 0-120 0Z" fill="#58DCF3" p-id="4751"></path>
  <path d="M262.5 123.3m-60 0a60 60 0 1 0 120 0 60 60 0 1 0-120 0Z" fill="#58DEF4" p-id="4752"></path>
  <path d="M271.3 123.3m-60 0a60 60 0 1 0 120 0 60 60 0 1 0-120 0Z" fill="#58E1F5" p-id="4753"></path>
  <path d="M280 123.3m-60 0a60 60 0 1 0 120 0 60 60 0 1 0-120 0Z" fill="#58E3F6" p-id="4754"></path>
  <path d="M288.8 123.3m-60 0a60 60 0 1 0 120 0 60 60 0 1 0-120 0Z" fill="#58E6F7" p-id="4755"></path>
  <path d="M297.5 123.3m-60 0a60 60 0 1 0 120 0 60 60 0 1 0-120 0Z" fill="#58E8F8" p-id="4756"></path>
  <path d="M306.3 123.3m-60 0a60 60 0 1 0 120 0 60 60 0 1 0-120 0Z" fill="#58EBF8" p-id="4757"></path>
  <path d="M315.1 123.3m-60 0a60 60 0 1 0 120 0 60 60 0 1 0-120 0Z" fill="#59EDF9" p-id="4758"></path>
  <path d="M323.8 123.3m-60 0a60 60 0 1 0 120 0 60 60 0 1 0-120 0Z" fill="#59F0FA" p-id="4759"></path>
  <path d="M332.6 123.3m-60 0a60 60 0 1 0 120 0 60 60 0 1 0-120 0Z" fill="#59F2FB" p-id="4760"></path>
  <path d="M341.3 123.3m-60 0a60 60 0 1 0 120 0 60 60 0 1 0-120 0Z" fill="#59F5FC" p-id="4761"></path>
  <path d="M350.1 123.3m-60 0a60 60 0 1 0 120 0 60 60 0 1 0-120 0Z" fill="#59F7FD" p-id="4762"></path>
  <path d="M358.8 123.3m-60 0a60 60 0 1 0 120 0 60 60 0 1 0-120 0Z" fill="#59FAFE" p-id="4763"></path>
  <path d="M367.6 183.3c33 0 60-27 60-60s-27-60-60-60-60 27-60 60 26.9 60 60 60z" fill="#59FCFF" p-id="4764"></path>
  <path d="M381.8 123.3m-60 0a60 60 0 1 0 120 0 60 60 0 1 0-120 0Z" fill="#59FAFF" p-id="4765"></path>
  <path d="M396.1 123.3m-60 0a60 60 0 1 0 120 0 60 60 0 1 0-120 0Z" fill="#5AF8FF" p-id="4766"></path>
  <path d="M410.3 123.3m-60 0a60 60 0 1 0 120 0 60 60 0 1 0-120 0Z" fill="#5AF7FF" p-id="4767"></path>
  <path d="M424.5 123.3m-60 0a60 60 0 1 0 120 0 60 60 0 1 0-120 0Z" fill="#5BF5FF" p-id="4768"></path>
  <path d="M438.8 123.3m-60 0a60 60 0 1 0 120 0 60 60 0 1 0-120 0Z" fill="#5BF3FF" p-id="4769"></path>
  <path d="M453 123.3m-60 0a60 60 0 1 0 120 0 60 60 0 1 0-120 0Z" fill="#5CF1FF" p-id="4770"></path>
  <path d="M467.2 123.3m-60 0a60 60 0 1 0 120 0 60 60 0 1 0-120 0Z" fill="#5CEFFF" p-id="4771"></path>
  <path d="M481.5 123.3m-60 0a60 60 0 1 0 120 0 60 60 0 1 0-120 0Z" fill="#5DEEFF" p-id="4772"></path>
  <path d="M495.7 123.3m-60 0a60 60 0 1 0 120 0 60 60 0 1 0-120 0Z" fill="#5DECFF" p-id="4773"></path>
  <path d="M509.9 123.5m-60 0a60 60 0 1 0 120 0 60 60 0 1 0-120 0Z" fill="#5EEAFF" p-id="4774"></path>
  <path d="M524.1 124.3m-60 0a60 60 0 1 0 120 0 60 60 0 1 0-120 0Z" fill="#5EE8FF" p-id="4775"></path>
  <path d="M538.3 125.8m-60 0a60 60 0 1 0 120 0 60 60 0 1 0-120 0Z" fill="#5EE6FF" p-id="4776"></path>
  <path d="M552.3 128.2m-60 0a60 60 0 1 0 120 0 60 60 0 1 0-120 0Z" fill="#5FE5FF" p-id="4777"></path>
  <path d="M566.2 131.2m-60 0a60 60 0 1 0 120 0 60 60 0 1 0-120 0Z" fill="#5FE3FF" p-id="4778"></path>
  <path d="M579.9 135.1m-60 0a60 60 0 1 0 120 0 60 60 0 1 0-120 0Z" fill="#60E1FF" p-id="4779"></path>
  <path d="M593.4 139.7m-60 0a60 60 0 1 0 120 0 60 60 0 1 0-120 0Z" fill="#60DFFF" p-id="4780"></path>
  <path d="M606.6 145.1m-60 0a60 60 0 1 0 120 0 60 60 0 1 0-120 0Z" fill="#61DEFF" p-id="4781"></path>
  <path d="M619.5 151.1m-60 0a60 60 0 1 0 120 0 60 60 0 1 0-120 0Z" fill="#61DCFF" p-id="4782"></path>
  <path d="M632 157.9m-60 0a60 60 0 1 0 120 0 60 60 0 1 0-120 0Z" fill="#62DAFF" p-id="4783"></path>
  <path d="M644.1 165.3m-60 0a60 60 0 1 0 120 0 60 60 0 1 0-120 0Z" fill="#62D8FF" p-id="4784"></path>
  <path d="M655.9 173.3m-60 0a60 60 0 1 0 120 0 60 60 0 1 0-120 0Z" fill="#63D6FF" p-id="4785"></path>
  <path d="M667.2 182m-60 0a60 60 0 1 0 120 0 60 60 0 1 0-120 0Z" fill="#63D5FF" p-id="4786"></path>
  <path d="M677.9 191.3m-60 0a60 60 0 1 0 120 0 60 60 0 1 0-120 0Z" fill="#63D3FF" p-id="4787"></path>
  <path d="M688.2 201.2m-60 0a60 60 0 1 0 120 0 60 60 0 1 0-120 0Z" fill="#64D1FF" p-id="4788"></path>
  <path d="M697.9 211.6m-60 0a60 60 0 1 0 120 0 60 60 0 1 0-120 0Z" fill="#64CFFF" p-id="4789"></path>
  <path d="M707 222.5m-60 0a60 60 0 1 0 120 0 60 60 0 1 0-120 0Z" fill="#65CDFF" p-id="4790"></path>
  <path d="M715.5 233.9m-60 0a60 60 0 1 0 120 0 60 60 0 1 0-120 0Z" fill="#65CCFF" p-id="4791"></path>
  <path d="M723.4 245.8m-60 0a60 60 0 1 0 120 0 60 60 0 1 0-120 0Z" fill="#66CAFF" p-id="4792"></path>
  <path d="M730.7 258m-60 0a60 60 0 1 0 120 0 60 60 0 1 0-120 0Z" fill="#66C8FF" p-id="4793"></path>
  <path d="M737.3 270.6m-60 0a60 60 0 1 0 120 0 60 60 0 1 0-120 0Z" fill="#67C6FF" p-id="4794"></path>
  <path d="M743.1 283.6m-60 0a60 60 0 1 0 120 0 60 60 0 1 0-120 0Z" fill="#67C4FF" p-id="4795"></path>
  <path d="M748.2 296.9m-60 0a60 60 0 1 0 120 0 60 60 0 1 0-120 0Z" fill="#68C3FF" p-id="4796"></path>
  <path d="M752.6 310.4m-60 0a60 60 0 1 0 120 0 60 60 0 1 0-120 0Z" fill="#68C1FF" p-id="4797"></path>
  <path d="M756.3 324.2m-60 0a60 60 0 1 0 120 0 60 60 0 1 0-120 0Z" fill="#68BFFF" p-id="4798"></path>
  <path d="M759.1 338.1m-60 0a60 60 0 1 0 120 0 60 60 0 1 0-120 0Z" fill="#69BDFF" p-id="4799"></path>
  <path d="M761.3 352.2m-60 0a60 60 0 1 0 120 0 60 60 0 1 0-120 0Z" fill="#69BBFF" p-id="4800"></path>
  <path d="M762.6 366.4m-60 0a60 60 0 1 0 120 0 60 60 0 1 0-120 0Z" fill="#6ABAFF" p-id="4801"></path>
  <path d="M763.2 380.6m-60 0a60 60 0 1 0 120 0 60 60 0 1 0-120 0Z" fill="#6AB8FF" p-id="4802"></path>
  <path d="M763.1 394.8m-60 0a60 60 0 1 0 120 0 60 60 0 1 0-120 0Z" fill="#6BB6FF" p-id="4803"></path>
  <path d="M762.1 409m-60 0a60 60 0 1 0 120 0 60 60 0 1 0-120 0Z" fill="#6BB4FF" p-id="4804"></path>
  <path d="M760.4 423.1m-60 0a60 60 0 1 0 120 0 60 60 0 1 0-120 0Z" fill="#6CB3FF" p-id="4805"></path>
  <path d="M758 437.2m-60 0a60 60 0 1 0 120 0 60 60 0 1 0-120 0Z" fill="#6CB1FF" p-id="4806"></path>
  <path d="M754.7 451m-60 0a60 60 0 1 0 120 0 60 60 0 1 0-120 0Z" fill="#6DAFFF" p-id="4807"></path>
  <path d="M750.7 464.7m-60 0a60 60 0 1 0 120 0 60 60 0 1 0-120 0Z" fill="#6DADFF" p-id="4808"></path>
  <path d="M745.9 478.1m-60 0a60 60 0 1 0 120 0 60 60 0 1 0-120 0Z" fill="#6DABFF" p-id="4809"></path>
  <path d="M740.5 491.2m-60 0a60 60 0 1 0 120 0 60 60 0 1 0-120 0Z" fill="#6EAAFF" p-id="4810"></path>
  <path d="M734.3 504m-60 0a60 60 0 1 0 120 0 60 60 0 1 0-120 0Z" fill="#6EA8FF" p-id="4811"></path>
  <path d="M727.4 516.5m-60 0a60 60 0 1 0 120 0 60 60 0 1 0-120 0Z" fill="#6FA6FF" p-id="4812"></path>
  <path d="M719.9 528.6m-60 0a60 60 0 1 0 120 0 60 60 0 1 0-120 0Z" fill="#6FA4FF" p-id="4813"></path>
  <path d="M711.7 540.3m-60 0a60 60 0 1 0 120 0 60 60 0 1 0-120 0Z" fill="#70A2FF" p-id="4814"></path>
  <path d="M702.9 551.4m-60 0a60 60 0 1 0 120 0 60 60 0 1 0-120 0Z" fill="#70A1FF" p-id="4815"></path>
  <path d="M693.5 562.1m-60 0a60 60 0 1 0 120 0 60 60 0 1 0-120 0Z" fill="#719FFF" p-id="4816"></path>
  <path d="M683.5 572.2m-60 0a60 60 0 1 0 120 0 60 60 0 1 0-120 0Z" fill="#719DFF" p-id="4817"></path>
  <path d="M673 581.8m-60 0a60 60 0 1 0 120 0 60 60 0 1 0-120 0Z" fill="#729BFF" p-id="4818"></path>
  <path d="M662 590.9m-60 0a60 60 0 1 0 120 0 60 60 0 1 0-120 0Z" fill="#7299FF" p-id="4819"></path>
  <path d="M650.5 599.3m-60 0a60 60 0 1 0 120 0 60 60 0 1 0-120 0Z" fill="#7398FF" p-id="4820"></path>
  <path d="M638.6 607.1m-60 0a60 60 0 1 0 120 0 60 60 0 1 0-120 0Z" fill="#7396FF" p-id="4821"></path>
  <path d="M626.3 614.2m-60 0a60 60 0 1 0 120 0 60 60 0 1 0-120 0Z" fill="#7394FF" p-id="4822"></path>
  <path d="M613.6 620.6m-60 0a60 60 0 1 0 120 0 60 60 0 1 0-120 0Z" fill="#7492FF" p-id="4823"></path>
  <path d="M600.5 626.3m-60 0a60 60 0 1 0 120 0 60 60 0 1 0-120 0Z" fill="#7490FF" p-id="4824"></path>
  <path d="M587.2 631.3m-60 0a60 60 0 1 0 120 0 60 60 0 1 0-120 0Z" fill="#758FFF" p-id="4825"></path>
  <path d="M573.6 635.6m-60 0a60 60 0 1 0 120 0 60 60 0 1 0-120 0Z" fill="#758DFF" p-id="4826"></path>
  <path d="M559.8 639.1m-60 0a60 60 0 1 0 120 0 60 60 0 1 0-120 0Z" fill="#768BFF" p-id="4827"></path>
  <path d="M545.9 641.8m-60 0a60 60 0 1 0 120 0 60 60 0 1 0-120 0Z" fill="#7689FF" p-id="4828"></path>
  <path d="M531.8 643.8m-60 0a60 60 0 1 0 120 0 60 60 0 1 0-120 0Z" fill="#7788FF" p-id="4829"></path>
  <path d="M517.6 645m-60 0a60 60 0 1 0 120 0 60 60 0 1 0-120 0Z" fill="#7786FF" p-id="4830"></path>
  <path d="M503.4 645.5m-60 0a60 60 0 1 0 120 0 60 60 0 1 0-120 0Z" fill="#7884FF" p-id="4831"></path>
  <path d="M489.1 645.5m-60 0a60 60 0 1 0 120 0 60 60 0 1 0-120 0Z" fill="#7882FF" p-id="4832"></path>
  <path d="M474.9 645.5m-60 0a60 60 0 1 0 120 0 60 60 0 1 0-120 0Z" fill="#7880FF" p-id="4833"></path>
  <path d="M460.7 645.5m-60 0a60 60 0 1 0 120 0 60 60 0 1 0-120 0Z" fill="#797FFF" p-id="4834"></path>
  <path d="M446.4 645.5m-60 0a60 60 0 1 0 120 0 60 60 0 1 0-120 0Z" fill="#797DFF" p-id="4835"></path>
  <path d="M448.3 657.4m-60 0a60 60 0 1 0 120 0 60 60 0 1 0-120 0Z" fill="#7A7BFF" p-id="4836"></path>
  <path d="M462.6 657.4m-60 0a60 60 0 1 0 120 0 60 60 0 1 0-120 0Z" fill="#7A79FF" p-id="4837"></path>
  <path d="M476.8 657.4m-60 0a60 60 0 1 0 120 0 60 60 0 1 0-120 0Z" fill="#7B77FF" p-id="4838"></path>
  <path d="M491 657.4m-60 0a60 60 0 1 0 120 0 60 60 0 1 0-120 0Z" fill="#7B76FF" p-id="4839"></path>
  <path d="M505.3 657.4m-60 0a60 60 0 1 0 120 0 60 60 0 1 0-120 0Z" fill="#7C74FF" p-id="4840"></path>
  <path d="M519.1 658.5m-60 0a60 60 0 1 0 120 0 60 60 0 1 0-120 0Z" fill="#7C72FF" p-id="4841"></path>
  <path d="M529.1 668.6m-60 0a60 60 0 1 0 120 0 60 60 0 1 0-120 0Z" fill="#7D70FF" p-id="4842"></path>
  <path d="M539.2 678.6m-60 0a60 60 0 1 0 120 0 60 60 0 1 0-120 0Z" fill="#7D6EFF" p-id="4843"></path>
  <path d="M549.3 688.7m-60 0a60 60 0 1 0 120 0 60 60 0 1 0-120 0Z" fill="#7D6DFF" p-id="4844"></path>
  <path d="M559.3 698.8m-60 0a60 60 0 1 0 120 0 60 60 0 1 0-120 0Z" fill="#7E6BFF" p-id="4845"></path>
  <path d="M569.4 708.8m-60 0a60 60 0 1 0 120 0 60 60 0 1 0-120 0Z" fill="#7E69FF" p-id="4846"></path>
  <path d="M579.5 718.9m-60 0a60 60 0 1 0 120 0 60 60 0 1 0-120 0Z" fill="#7F67FF" p-id="4847"></path>
  <path d="M589.5 729m-60 0a60 60 0 1 0 120 0 60 60 0 1 0-120 0Z" fill="#7F65FF" p-id="4848"></path>
  <path d="M599.6 739m-60 0a60 60 0 1 0 120 0 60 60 0 1 0-120 0Z" fill="#8064FF" p-id="4849"></path>
  <path d="M609.7 749.1m-60 0a60 60 0 1 0 120 0 60 60 0 1 0-120 0Z" fill="#8062FF" p-id="4850"></path>
  <path d="M619.7 759.2m-60 0a60 60 0 1 0 120 0 60 60 0 1 0-120 0Z" fill="#8160FF" p-id="4851"></path>
  <path d="M629.8 769.2m-60 0a60 60 0 1 0 120 0 60 60 0 1 0-120 0Z" fill="#815EFF" p-id="4852"></path>
  <path d="M639.9 779.3m-60 0a60 60 0 1 0 120 0 60 60 0 1 0-120 0Z" fill="#825DFF" p-id="4853"></path>
  <path d="M649.9 789.4m-60 0a60 60 0 1 0 120 0 60 60 0 1 0-120 0Z" fill="#825BFF" p-id="4854"></path>
  <path d="M660 799.4m-60 0a60 60 0 1 0 120 0 60 60 0 1 0-120 0Z" fill="#8259FF" p-id="4855"></path>
  <path d="M670.1 809.5m-60 0a60 60 0 1 0 120 0 60 60 0 1 0-120 0Z" fill="#8357FF" p-id="4856"></path>
  <path d="M680.1 819.6m-60 0a60 60 0 1 0 120 0 60 60 0 1 0-120 0Z" fill="#8355FF" p-id="4857"></path>
  <path d="M690.2 829.6m-60 0a60 60 0 1 0 120 0 60 60 0 1 0-120 0Z" fill="#8454FF" p-id="4858"></path>
  <path d="M700.3 839.7m-60 0a60 60 0 1 0 120 0 60 60 0 1 0-120 0Z" fill="#8452FF" p-id="4859"></path>
  <path d="M710.3 849.8m-60 0a60 60 0 1 0 120 0 60 60 0 1 0-120 0Z" fill="#8550FF" p-id="4860"></path>
  <path d="M720.4 859.8m-60 0a60 60 0 1 0 120 0 60 60 0 1 0-120 0Z" fill="#854EFF" p-id="4861"></path>
  <path d="M730.5 869.9m-60 0a60 60 0 1 0 120 0 60 60 0 1 0-120 0Z" fill="#864CFF" p-id="4862"></path>
  <path d="M740.5 880m-60 0a60 60 0 1 0 120 0 60 60 0 1 0-120 0Z" fill="#864BFF" p-id="4863"></path>
  <path d="M750.6 890m-60 0a60 60 0 1 0 120 0 60 60 0 1 0-120 0Z" fill="#8749FF" p-id="4864"></path>
  <path d="M760.6 960.1c33 0 60-27 60-60s-27-60-60-60-60 27-60 60 27 60 60 60z" fill="#8747FF" p-id="4865"></path>
</svg>